<?xml version="1.0" standalone="no"?>
<!DOCTYPE svg PUBLIC "-//W3C//DTD SVG 20010904//EN"
 "http://www.w3.org/TR/2001/REC-SVG-20010904/DTD/svg10.dtd">
<svg version="1.0" xmlns="http://www.w3.org/2000/svg"
 width="200.000000pt" height="200.000000pt" viewBox="0 0 200.000000 200.000000"
 preserveAspectRatio="xMidYMid meet">
<metadata>
Created by potrace 1.11, written by Peter Selinger 2001-2013
</metadata>
<g transform="translate(0.000000,200.000000) scale(0.100000,-0.100000)"
fill="#000000" stroke="none">
<path d="M929 1696 c-102 -26 -214 -122 -307 -261 -55 -82 -149 -262 -213
-410 -51 -118 -83 -175 -197 -349 -109 -167 -134 -220 -127 -275 7 -55 22 -78
63 -94 48 -19 99 -14 254 23 102 25 135 36 131 46 -3 8 -21 14 -42 15 -158 3
-156 2 -159 30 -2 21 9 39 48 80 66 70 156 251 210 424 23 72 52 153 66 182
33 66 118 146 191 181 51 24 70 27 158 26 86 0 108 -4 156 -26 79 -36 161
-118 198 -198 17 -36 31 -70 31 -76 0 -17 44 -148 79 -237 50 -125 101 -214
158 -275 53 -57 58 -67 47 -96 -5 -13 -23 -16 -93 -16 -59 0 -93 -5 -106 -14
-18 -13 -17 -15 20 -21 22 -4 87 -19 145 -34 108 -29 170 -32 218 -12 35 14
49 37 57 90 8 54 -11 95 -123 268 -110 171 -159 258 -197 348 -213 510 -437
739 -666 681z"/>
<path d="M925 1294 c-38 -10 -80 -28 -119 -52 -49 -30 -38 -39 60 -49 106 -11
347 -3 362 12 10 9 -22 35 -74 61 -40 20 -72 27 -131 29 -43 2 -87 2 -98 -1z"/>
<path d="M722 1171 c-14 -15 -7 -17 79 -28 103 -14 261 -19 324 -10 22 3 64 9
92 12 29 4 56 11 59 17 8 12 -14 28 -30 23 -63 -21 -327 -28 -429 -11 -70 11
-81 11 -95 -3z"/>
<path d="M681 1116 c-7 -9 -10 -17 -5 -17 5 -1 20 -3 34 -4 14 -1 54 -6 90
-11 83 -12 327 -12 405 0 33 5 71 10 85 11 39 4 40 4 33 21 -5 13 -16 15 -62
10 -31 -3 -67 -9 -81 -11 -32 -7 -295 -8 -335 -1 -106 17 -151 18 -164 2z"/>
<path d="M665 1044 c-24 -26 -26 -34 -20 -79 12 -101 51 -183 75 -159 9 9 6
22 -10 54 -30 59 -38 141 -16 163 17 16 80 17 147 1 40 -10 243 -12 295 -4
133 21 151 22 169 4 23 -23 15 -108 -15 -165 -20 -39 -19 -59 1 -59 15 0 57
100 62 149 6 56 -7 95 -38 111 -21 11 -77 10 -180 -6 -31 -5 -248 -5 -270 0
-11 2 -55 7 -97 11 -76 7 -77 7 -103 -21z"/>
<path d="M733 999 c-33 -12 -31 -67 2 -103 28 -31 31 -30 133 15 93 42 168 40
273 -6 85 -37 117 -36 138 4 28 52 4 103 -44 95 -38 -6 -200 -18 -245 -18 -49
1 -222 15 -230 19 -3 1 -15 -1 -27 -6z"/>
<path d="M608 908 c-5 -29 11 -68 28 -68 10 0 9 10 -3 45 -8 25 -16 45 -18 45
-2 0 -5 -10 -7 -22z"/>
<path d="M930 923 c-8 -2 -58 -60 -110 -128 -52 -68 -97 -124 -100 -124 -7 0
-91 116 -112 153 l-16 31 -11 -28 c-13 -33 -15 -29 57 -124 30 -40 52 -78 50
-85 -6 -17 117 -316 131 -319 37 -8 71 -2 97 18 57 42 125 40 179 -8 23 -20
83 -18 96 2 24 38 129 301 123 310 -3 5 22 47 55 93 60 82 61 85 47 116 l-13
32 -22 -43 c-20 -41 -36 -65 -86 -125 l-20 -24 -95 120 c-52 66 -104 123 -115
126 -23 8 -113 12 -135 7z m97 -30 c-20 -2 -52 -2 -70 0 -17 2 0 4 38 4 39 0
53 -2 32 -4z m6 -30 c-18 -2 -48 -2 -65 0 -18 2 -4 4 32 4 36 0 50 -2 33 -4z
m93 -88 c118 -144 164 -205 155 -205 -8 0 -110 122 -181 216 -24 33 -27 33
-101 34 l-77 0 -40 -52 c-22 -29 -49 -64 -62 -78 -12 -14 -38 -46 -58 -72 -20
-27 -40 -48 -45 -48 -12 0 -3 13 105 146 l98 122 78 -2 79 -1 49 -60z m-222
-304 c15 -16 15 -20 1 -31 -9 -8 -13 -21 -9 -36 3 -13 3 -32 -2 -41 -4 -10 -8
-22 -8 -27 -1 -12 -66 -17 -66 -5 0 5 10 9 23 9 29 0 48 31 39 64 -4 14 -10
26 -14 26 -5 0 -19 0 -32 0 -29 0 -43 30 -22 46 24 17 72 15 90 -5z m271 -140
c-3 -5 -18 -7 -32 -5 -41 8 -41 14 1 14 20 0 35 -4 31 -9z"/>
<path d="M820 465 c-14 -17 -2 -25 42 -25 27 0 38 4 38 15 0 8 -6 15 -12 16
-7 0 -23 2 -36 3 -12 2 -27 -3 -32 -9z"/>
<path d="M1368 892 c-15 -38 -14 -52 3 -52 12 0 27 54 20 74 -6 15 -10 11 -23
-22z"/>
</g>
</svg>
