<?xml version="1.0" ?><!DOCTYPE svg  PUBLIC '-//W3C//DTD SVG 1.1//EN'  'http://www.w3.org/Graphics/SVG/1.1/DTD/svg11.dtd'><svg enable-background="new 0 0 800 800" height="800px" id="Layer_1" version="1.1" viewBox="0 0 800 800" width="800px" xml:space="preserve" xmlns="http://www.w3.org/2000/svg" xmlns:cc="http://creativecommons.org/ns#" xmlns:dc="http://purl.org/dc/elements/1.1/" xmlns:inkscape="http://www.inkscape.org/namespaces/inkscape" xmlns:rdf="http://www.w3.org/1999/02/22-rdf-syntax-ns#" xmlns:sodipodi="http://sodipodi.sourceforge.net/DTD/sodipodi-0.dtd" xmlns:svg="http://www.w3.org/2000/svg" xmlns:xlink="http://www.w3.org/1999/xlink"><g><linearGradient gradientUnits="userSpaceOnUse" id="SVGID_1_" x1="29.5781" x2="773.5079" y1="32.6528" y2="770.4072"><stop offset="0" style="stop-color:#FF7256"/><stop offset="0.5" style="stop-color:#FE5F60"/><stop offset="1" style="stop-color:#FD2C7A"/></linearGradient><path d="M768.5,263.002c0-127.329-104.179-231.508-231.508-231.508H263.008   C135.679,31.494,31.5,135.673,31.5,263.002v273.99c0,127.335,104.179,231.514,231.508,231.514h273.984   c127.329,0,231.508-104.179,231.508-231.514V263.002z" fill="url(#SVGID_1_)"/><path clip-rule="evenodd" d="M291.217,250.828c-1.785,10.862,14.829,96.972,30.107,90.561   c116.314-48.79,90.101-185.896,79.682-238.994c-2.398-12.209,33.393,20.212,48.018,35.399   c40.713,42.282,76.345,88.417,104.326,140.192c20.996,38.843,36.831,79.613,45.767,122.976c5.786,28.055,8.207,56.378,7.185,84.973   c-1.313,37.07-10.891,71.815-29.596,103.918c-21.4,36.718-53.314,59.703-93.772,71.445c-20.581,5.969-41.611,9.486-62.977,10.612   c-17.677,0.932-35.439,1.909-53.104,1.313c-42.771-1.438-84.019-9.747-121.663-31.272c-41.146-23.531-67.166-58.186-75.737-105.19   c-4.331-23.73-3.529-47.506,0.841-71.185c8.56-46.396,28.482-88.127,53.212-127.79c18.262-29.294,39.087-56.667,62.255-82.256   C287.267,253.88,291.444,249.469,291.217,250.828z" fill="#FFFFFF" fill-rule="evenodd"/><path d="M626.006,427.845c-8.935-43.361-24.77-84.132-45.766-122.98c-27.981-51.769-63.619-97.91-104.327-140.187   c-4.416-4.581-10.765-10.736-17.409-16.761c36.752,39.52,69.069,82.375,94.846,130.069c20.996,38.843,36.831,79.613,45.767,122.976   c5.786,28.055,8.207,56.378,7.185,84.973c-1.313,37.07-10.891,71.815-29.596,103.918c-21.4,36.718-53.314,59.703-93.772,71.445   c-20.581,5.969-41.611,9.486-62.977,10.612c-17.677,0.932-35.439,1.909-53.104,1.313c-42.771-1.438-84.019-9.747-121.663-31.272   c-7.486-4.274-14.448-8.935-20.911-13.953c12.425,16.153,28.413,29.755,47.801,40.838c37.65,21.524,78.897,29.834,121.663,31.272   c17.671,0.597,35.428-0.375,53.104-1.308c21.366-1.131,42.391-4.649,62.972-10.617c40.463-11.737,72.378-34.729,93.777-71.445   c18.7-32.103,28.283-66.848,29.596-103.918C634.208,484.218,631.792,455.889,626.006,427.845z" opacity="0.15"/></g></svg>